<?xml version="1.0" standalone="no"?>
<!DOCTYPE svg PUBLIC "-//W3C//DTD SVG 20010904//EN"
 "http://www.w3.org/TR/2001/REC-SVG-20010904/DTD/svg10.dtd">
<svg version="1.0" xmlns="http://www.w3.org/2000/svg"
 width="2083.000000pt" height="2083.000000pt" viewBox="0 0 2083.000000 2083.000000"
 preserveAspectRatio="xMidYMid meet">
<metadata>
Created by potrace 1.11, written by Peter Selinger 2001-2013
</metadata>
<g transform="translate(0.000000,2083.000000) scale(0.100000,-0.100000)"
fill="#000000" stroke="none">
<path d="M10100 17943 c-519 -37 -1022 -153 -1500 -344 -177 -70 -512 -237
-675 -336 -1322 -802 -2180 -2158 -2330 -3682 -42 -427 -23 -914 51 -1321 34
-189 167 -767 219 -955 226 -812 558 -1695 992 -2640 136 -295 459 -949 606
-1225 l103 -195 1349 -3 1348 -2 -6 1547 -5 1546 -595 596 c-327 328 -602 610
-611 628 -32 65 -13 161 42 203 13 11 43 25 65 31 88 23 77 32 610 -499 l487
-487 0 505 0 505 -596 595 c-327 327 -602 607 -610 622 -35 66 -9 161 58 211
37 28 116 34 159 12 19 -9 249 -231 512 -493 l477 -477 0 865 c0 573 4 878 11
903 14 52 63 105 107 116 76 20 165 -17 196 -83 14 -31 16 -123 16 -922 l0
-889 483 482 c331 331 494 487 519 498 129 53 258 -64 218 -198 -10 -36 -97
-128 -616 -647 l-604 -605 0 -505 0 -505 488 486 c268 268 497 492 509 498 28
14 108 14 136 0 70 -36 103 -100 92 -177 -6 -46 -16 -56 -616 -657 l-609 -610
0 -1548 0 -1547 1343 0 1342 0 137 263 c745 1429 1306 2820 1588 3937 28 113
69 264 90 337 170 581 226 1263 154 1882 -64 556 -220 1084 -468 1589 -234
474 -505 856 -876 1236 -258 263 -473 444 -755 635 -706 478 -1496 753 -2359
821 -117 9 -565 11 -676 3z"/>
<path d="M10580 5729 c0 -754 0 -762 -21 -799 -35 -62 -118 -97 -187 -78 -47
13 -97 64 -111 113 -7 28 -11 273 -11 778 l0 737 -1126 0 -1126 0 38 -67 c226
-406 750 -1216 1299 -2008 459 -662 1075 -1526 1086 -1522 21 6 332 403 531
677 370 507 836 1209 1314 1977 173 278 574 940 574 948 0 3 -508 5 -1130 5
l-1130 0 0 -761z"/>
</g>
</svg>
